<svg width="154" height="39" viewBox="0 0 154 39" fill="none" xmlns="http://www.w3.org/2000/svg">
<g filter="url(#filter0_d)">
<path fill-rule="evenodd" clip-rule="evenodd" d="M63.5755 6.8752C62.6863 6.3184 61.6232 6.04 60.3861 6.04C59.0523 6.04 57.8587 6.3712 56.8052 7.0336C55.7518 7.696 54.9206 8.64639 54.3117 9.8848C53.7028 11.1232 53.3984 12.5872 53.3984 14.2768C53.3984 15.9472 53.7028 17.4064 54.3117 18.6544C54.9206 19.9024 55.7518 20.8576 56.8052 21.52C57.8587 22.1824 59.0523 22.5136 60.3861 22.5136C61.6232 22.5136 62.6863 22.2352 63.5755 21.6784C64.4646 21.1216 65.1122 20.3632 65.5181 19.4032V22.312H70.4762V1H65.5181V9.1504C65.1122 8.1904 64.4646 7.432 63.5755 6.8752ZM10.1094 22.312V15.1696H13.1829C14.7872 15.1696 16.15 14.8864 17.2711 14.32C18.3922 13.7536 19.2379 12.976 19.8081 11.9872C20.3784 10.9984 20.6635 9.87041 20.6635 8.6032C20.6635 6.56799 20.0256 4.95041 18.7498 3.7504C17.4741 2.55039 15.6184 1.9504 13.1829 1.9504H5.15137V22.312H10.1094ZM15.6184 8.6032C15.6184 10.3504 14.6229 11.224 12.632 11.224H10.1094V5.9248H12.632C14.6229 5.9248 15.6184 6.81759 15.6184 8.6032ZM28.0571 9.2656C28.6757 8.2864 29.473 7.5088 30.4492 6.9328C31.4253 6.3568 32.4836 6.0688 33.6241 6.0688V11.3392H32.2033C30.8889 11.3392 29.8693 11.6176 29.1444 12.1744C28.4195 12.7312 28.0571 13.672 28.0571 14.9968V22.312H23.099V6.2416H28.0571V9.2656ZM47.585 7.0336C46.3189 6.3712 44.8836 6.04 43.2793 6.04C41.6749 6.04 40.2348 6.3712 38.9591 7.0336C37.6833 7.696 36.683 8.65119 35.9581 9.8992C35.2333 11.1472 34.8708 12.6064 34.8708 14.2768C34.8708 15.9472 35.2333 17.4064 35.9581 18.6544C36.683 19.9024 37.6833 20.8576 38.9591 21.52C40.2348 22.1824 41.6749 22.5136 43.2793 22.5136C44.8836 22.5136 46.3189 22.1824 47.585 21.52C48.8511 20.8576 49.8465 19.9024 50.5714 18.6544C51.2963 17.4064 51.6587 15.9472 51.6587 14.2768C51.6587 12.6064 51.2963 11.1472 50.5714 9.8992C49.8465 8.65119 48.8511 7.696 47.585 7.0336ZM43.2793 10.3024C42.3321 10.3024 41.5348 10.6432 40.8872 11.3248C40.2397 12.0064 39.9159 12.9904 39.9159 14.2768C39.9159 15.5632 40.2397 16.5424 40.8872 17.2144C41.5348 17.8864 42.3321 18.2224 43.2793 18.2224C44.2264 18.2224 45.0189 17.8864 45.6568 17.2144C46.2947 16.5424 46.6136 15.5632 46.6136 14.2768C46.6136 12.9904 46.2947 12.0064 45.6568 11.3248C45.0189 10.6432 44.2264 10.3024 43.2793 10.3024ZM61.9808 10.36C60.9176 10.36 60.0623 10.7056 59.4147 11.3968C58.7672 12.088 58.4434 13.048 58.4434 14.2768C58.4434 15.5056 58.7672 16.4656 59.4147 17.1568C60.0623 17.848 60.9176 18.1936 61.9808 18.1936C63.0246 18.1936 63.8799 17.8384 64.5468 17.128C65.2137 16.4176 65.5471 15.4672 65.5471 14.2768C65.5471 13.0672 65.2137 12.112 64.5468 11.4112C63.8799 10.7104 63.0246 10.36 61.9808 10.36ZM85.0025 22.312H89.9896V6.2416H85.0025V14.7664C85.0025 15.9376 84.7125 16.84 84.1326 17.4736C83.5527 18.1072 82.7602 18.424 81.7551 18.424C80.7886 18.424 80.0202 18.1216 79.45 17.5168C78.8798 16.912 78.5947 16.0624 78.5947 14.968V6.2416H73.6656V15.5728C73.6656 17.7232 74.2117 19.4128 75.3038 20.6416C76.3959 21.8704 77.8698 22.4848 79.7255 22.4848C80.9432 22.4848 82.0112 22.2064 82.9294 21.6496C83.8475 21.0928 84.5386 20.344 85.0025 19.4032V22.312ZM100.718 6.04C102.805 6.04 104.554 6.61119 105.966 7.7536C107.377 8.89601 108.266 10.4656 108.633 12.4624H103.385C103.23 11.7712 102.911 11.2336 102.428 10.8496C101.945 10.4656 101.336 10.2736 100.602 10.2736C99.7317 10.2736 99.0165 10.6144 98.456 11.296C97.8954 11.9776 97.6151 12.9712 97.6151 14.2768C97.6151 15.5824 97.8954 16.576 98.456 17.2576C99.0165 17.9392 99.7317 18.28 100.602 18.28C101.336 18.28 101.945 18.088 102.428 17.704C102.911 17.32 103.23 16.7824 103.385 16.0912H108.633C108.266 18.088 107.377 19.6576 105.966 20.8C104.554 21.9424 102.805 22.5136 100.718 22.5136C99.1325 22.5136 97.7263 22.1824 96.4988 21.52C95.2714 20.8576 94.3097 19.9024 93.6139 18.6544C92.918 17.4064 92.5701 15.9472 92.5701 14.2768C92.5701 12.5872 92.9132 11.1232 93.5994 9.8848C94.2856 8.64639 95.2472 7.696 96.4843 7.0336C97.7215 6.3712 99.1325 6.04 100.718 6.04ZM120.376 22.312V18.0784H118.81C118.192 18.0784 117.752 17.9536 117.491 17.704C117.23 17.4544 117.099 17.0128 117.099 16.3792V10.3888H120.347V6.2416H117.099V2.296H112.141V6.2416H109.967V10.3888H112.141V16.2928C112.141 18.4432 112.668 19.984 113.722 20.9152C114.775 21.8464 116.249 22.312 118.143 22.312H120.376ZM128.117 1V22.312H123.159V1H128.117ZM139.164 16.0912L135.279 6.2416H129.741L136.526 21.7072L132.728 29.9728H138.179L148.269 6.2416H142.789L139.164 16.0912Z" fill="#173A56"/>
<path d="M63.5755 6.8752L63.8408 6.45143L63.8408 6.45143L63.5755 6.8752ZM63.5755 21.6784L63.8408 22.1022L63.8408 22.1022L63.5755 21.6784ZM65.5181 19.4032H66.0181L65.0576 19.2085L65.5181 19.4032ZM65.5181 22.312H65.0181V22.812H65.5181V22.312ZM70.4762 22.312V22.812H70.9762V22.312H70.4762ZM70.4762 1H70.9762V0.5H70.4762V1ZM65.5181 1V0.5H65.0181V1H65.5181ZM65.5181 9.1504L65.0576 9.34513L66.0181 9.1504H65.5181ZM10.1094 15.1696V14.6696H9.60944V15.1696H10.1094ZM10.1094 22.312V22.812H10.6094V22.312H10.1094ZM17.2711 14.32L17.4966 14.7663L17.4966 14.7663L17.2711 14.32ZM18.7498 3.7504L18.4073 4.1146L18.4073 4.1146L18.7498 3.7504ZM5.15137 1.9504V1.4504H4.65137V1.9504H5.15137ZM5.15137 22.312H4.65137V22.812H5.15137V22.312ZM10.1094 11.224H9.60944V11.724H10.1094V11.224ZM10.1094 5.9248V5.4248H9.60944V5.9248H10.1094ZM30.4492 6.9328L30.1951 6.50218L30.1951 6.50218L30.4492 6.9328ZM28.0571 9.2656H27.5571V10.9934L28.4798 9.53263L28.0571 9.2656ZM33.6241 6.0688H34.1241V5.5688H33.6241V6.0688ZM33.6241 11.3392V11.8392H34.1241V11.3392H33.6241ZM29.1444 12.1744L28.8398 11.7779L28.8398 11.7779L29.1444 12.1744ZM28.0571 22.312V22.812H28.5571V22.312H28.0571ZM23.099 22.312H22.599V22.812H23.099V22.312ZM23.099 6.2416V5.7416H22.599V6.2416H23.099ZM28.0571 6.2416H28.5571V5.7416H28.0571V6.2416ZM47.585 7.0336L47.8167 6.59057L47.8167 6.59057L47.585 7.0336ZM38.9591 7.0336L38.7287 6.58985L38.7287 6.58985L38.9591 7.0336ZM35.9581 9.8992L36.3905 10.1503L36.3905 10.1503L35.9581 9.8992ZM38.9591 21.52L38.7287 21.9638L38.7287 21.9638L38.9591 21.52ZM47.585 21.52L47.8167 21.963L47.8167 21.963L47.585 21.52ZM50.5714 9.8992L50.139 10.1503L50.139 10.1503L50.5714 9.8992ZM40.8872 11.3248L40.5247 10.9804L40.5247 10.9804L40.8872 11.3248ZM40.8872 17.2144L40.5272 17.5613L40.5272 17.5613L40.8872 17.2144ZM45.6568 17.2144L45.2942 16.8702L45.2942 16.8702L45.6568 17.2144ZM45.6568 11.3248L45.2917 11.6665L45.2917 11.6665L45.6568 11.3248ZM59.4147 11.3968L59.0499 11.055L59.0499 11.055L59.4147 11.3968ZM59.4147 17.1568L59.0499 17.4986L59.0499 17.4986L59.4147 17.1568ZM64.5468 17.128L64.9113 17.4702L64.9113 17.4702L64.5468 17.128ZM64.5468 11.4112L64.909 11.0665L64.909 11.0665L64.5468 11.4112ZM89.9896 22.312V22.812H90.4896V22.312H89.9896ZM85.0025 22.312H84.5025V22.812H85.0025V22.312ZM89.9896 6.2416H90.4896V5.7416H89.9896V6.2416ZM85.0025 6.2416V5.7416H84.5025V6.2416H85.0025ZM84.1326 17.4736L83.7638 17.136L83.7638 17.136L84.1326 17.4736ZM78.5947 6.2416H79.0947V5.7416H78.5947V6.2416ZM73.6656 6.2416V5.7416H73.1656V6.2416H73.6656ZM75.3038 20.6416L74.9301 20.9738L74.9301 20.9738L75.3038 20.6416ZM82.9294 21.6496L83.1886 22.0771L83.1886 22.0771L82.9294 21.6496ZM85.0025 19.4032H85.5025L84.554 19.1821L85.0025 19.4032ZM105.966 7.7536L105.651 8.14221L105.651 8.14221L105.966 7.7536ZM108.633 12.4624V12.9624H109.233L109.125 12.372L108.633 12.4624ZM103.385 12.4624L102.897 12.5716L102.985 12.9624H103.385V12.4624ZM98.456 11.296L98.0698 10.9784L98.0698 10.9784L98.456 11.296ZM98.456 17.2576L98.8421 16.94L98.8421 16.94L98.456 17.2576ZM102.428 17.704L102.117 17.3125L102.117 17.3125L102.428 17.704ZM103.385 16.0912V15.5912H102.985L102.897 15.982L103.385 16.0912ZM108.633 16.0912L109.125 16.1816L109.233 15.5912H108.633V16.0912ZM105.966 20.8L105.651 20.4114L105.651 20.4114L105.966 20.8ZM96.4988 21.52L96.2614 21.96L96.2614 21.96L96.4988 21.52ZM93.6139 18.6544L94.0506 18.4109L94.0506 18.4109L93.6139 18.6544ZM93.5994 9.8848L93.162 9.64246L93.162 9.64246L93.5994 9.8848ZM96.4843 7.0336L96.2483 6.59281L96.2483 6.59281L96.4843 7.0336ZM120.376 18.0784H120.876V17.5784H120.376V18.0784ZM120.376 22.312V22.812H120.876V22.312H120.376ZM117.491 17.704L117.145 18.0653L117.145 18.0653L117.491 17.704ZM117.099 10.3888V9.8888H116.599V10.3888H117.099ZM120.347 10.3888V10.8888H120.847V10.3888H120.347ZM120.347 6.2416H120.847V5.7416H120.347V6.2416ZM117.099 6.2416H116.599V6.7416H117.099V6.2416ZM117.099 2.296H117.599V1.796H117.099V2.296ZM112.141 2.296V1.796H111.641V2.296H112.141ZM112.141 6.2416V6.7416H112.641V6.2416H112.141ZM109.967 6.2416V5.7416H109.467V6.2416H109.967ZM109.967 10.3888H109.467V10.8888H109.967V10.3888ZM112.141 10.3888H112.641V9.8888H112.141V10.3888ZM113.722 20.9152L114.053 20.5406L114.053 20.5406L113.722 20.9152ZM128.117 22.312V22.812H128.617V22.312H128.117ZM128.117 1H128.617V0.5H128.117V1ZM123.159 22.312H122.659V22.812H123.159V22.312ZM123.159 1V0.5H122.659V1H123.159ZM135.279 6.2416L135.744 6.05813L135.619 5.7416H135.279V6.2416ZM139.164 16.0912L138.699 16.2747L139.181 17.495L139.634 16.2639L139.164 16.0912ZM129.741 6.2416V5.7416H128.976L129.283 6.44247L129.741 6.2416ZM136.526 21.7072L136.98 21.916L137.074 21.7119L136.984 21.5063L136.526 21.7072ZM132.728 29.9728L132.273 29.764L131.948 30.4728H132.728V29.9728ZM138.179 29.9728V30.4728H138.509L138.639 30.1684L138.179 29.9728ZM148.269 6.2416L148.729 6.43724L149.025 5.7416H148.269V6.2416ZM142.789 6.2416V5.7416H142.44L142.319 6.06893L142.789 6.2416ZM60.3861 6.54C61.5464 6.54 62.5138 6.80032 63.3101 7.29897L63.8408 6.45143C62.8588 5.83648 61.7 5.54 60.3861 5.54V6.54ZM57.0714 7.45688C58.0394 6.84823 59.1394 6.54 60.3861 6.54V5.54C58.9652 5.54 57.678 5.89417 56.5391 6.61032L57.0714 7.45688ZM54.7604 10.1054C55.333 8.94083 56.1047 8.06469 57.0714 7.45688L56.5391 6.61032C55.3988 7.32732 54.5082 8.35196 53.863 9.66419L54.7604 10.1054ZM53.8984 14.2768C53.8984 12.6468 54.192 11.2615 54.7604 10.1054L53.863 9.66419C53.2136 10.9849 52.8984 12.5276 52.8984 14.2768H53.8984ZM54.7611 18.4352C54.1916 17.2679 53.8984 15.8865 53.8984 14.2768H52.8984C52.8984 16.008 53.214 17.5449 53.8623 18.8736L54.7611 18.4352ZM57.0714 21.0967C56.1057 20.4895 55.334 19.6094 54.7611 18.4352L53.8623 18.8736C54.5072 20.1954 55.3978 21.2257 56.5391 21.9433L57.0714 21.0967ZM60.3861 22.0136C59.1394 22.0136 58.0394 21.7054 57.0714 21.0967L56.5391 21.9433C57.678 22.6594 58.9652 23.0136 60.3861 23.0136V22.0136ZM63.3101 21.2546C62.5138 21.7533 61.5464 22.0136 60.3861 22.0136V23.0136C61.7 23.0136 62.8588 22.7171 63.8408 22.1022L63.3101 21.2546ZM65.0576 19.2085C64.6919 20.0732 64.1129 20.7519 63.3101 21.2546L63.8408 22.1022C64.8164 21.4913 65.5324 20.6532 65.9786 19.5979L65.0576 19.2085ZM66.0181 22.312V19.4032H65.0181V22.312H66.0181ZM70.4762 21.812H65.5181V22.812H70.4762V21.812ZM69.9762 1V22.312H70.9762V1H69.9762ZM65.5181 1.5H70.4762V0.5H65.5181V1.5ZM66.0181 9.1504V1H65.0181V9.1504H66.0181ZM63.3101 7.29897C64.1129 7.80166 64.6919 8.48036 65.0576 9.34513L65.9786 8.95567C65.5324 7.90043 64.8164 7.06235 63.8408 6.45143L63.3101 7.29897ZM9.60944 15.1696V22.312H10.6094V15.1696H9.60944ZM13.1829 14.6696H10.1094V15.6696H13.1829V14.6696ZM17.0456 13.8737C16.0111 14.3964 14.73 14.6696 13.1829 14.6696V15.6696C14.8445 15.6696 16.2889 15.3764 17.4966 14.7663L17.0456 13.8737ZM19.375 11.7374C18.8582 12.6335 18.089 13.3466 17.0456 13.8737L17.4966 14.7663C18.6955 14.1606 19.6176 13.3185 20.2413 12.237L19.375 11.7374ZM20.1635 8.6032C20.1635 9.79262 19.8967 10.8327 19.375 11.7374L20.2413 12.237C20.86 11.1641 21.1635 9.94819 21.1635 8.6032H20.1635ZM18.4073 4.1146C19.5661 5.20461 20.1635 6.68151 20.1635 8.6032H21.1635C21.1635 6.45447 20.4851 4.6962 19.0924 3.3862L18.4073 4.1146ZM13.1829 2.4504C15.5412 2.4504 17.2552 3.03099 18.4073 4.1146L19.0924 3.3862C17.6929 2.0698 15.6956 1.4504 13.1829 1.4504V2.4504ZM5.15137 2.4504H13.1829V1.4504H5.15137V2.4504ZM5.65137 22.312V1.9504H4.65137V22.312H5.65137ZM10.1094 21.812H5.15137V22.812H10.1094V21.812ZM12.632 11.724C13.6896 11.724 14.5763 11.4934 15.2016 10.9446C15.8394 10.3849 16.1184 9.57207 16.1184 8.6032H15.1184C15.1184 9.38154 14.8997 9.8791 14.542 10.193C14.1719 10.5178 13.5653 10.724 12.632 10.724V11.724ZM10.1094 11.724H12.632V10.724H10.1094V11.724ZM9.60944 5.9248V11.224H10.6094V5.9248H9.60944ZM12.632 5.4248H10.1094V6.4248H12.632V5.4248ZM16.1184 8.6032C16.1184 7.6184 15.8414 6.79235 15.2056 6.22217C14.5802 5.66127 13.6919 5.4248 12.632 5.4248V6.4248C13.563 6.4248 14.1679 6.63473 14.538 6.96663C14.8977 7.28924 15.1184 7.80239 15.1184 8.6032H16.1184ZM30.1951 6.50218C29.149 7.11945 28.2944 7.95374 27.6344 8.99857L28.4798 9.53263C29.0569 8.61905 29.797 7.89815 30.7032 7.36342L30.1951 6.50218ZM33.6241 5.5688C32.3948 5.5688 31.2487 5.88046 30.1951 6.50218L30.7032 7.36342C31.6019 6.83314 32.5724 6.5688 33.6241 6.5688V5.5688ZM34.1241 11.3392V6.0688H33.1241V11.3392H34.1241ZM32.2033 11.8392H33.6241V10.8392H32.2033V11.8392ZM29.449 12.5709C30.0555 12.105 30.9523 11.8392 32.2033 11.8392V10.8392C30.8255 10.8392 29.683 11.1302 28.8398 11.7779L29.449 12.5709ZM28.5571 14.9968C28.5571 13.7543 28.8955 12.996 29.449 12.5709L28.8398 11.7779C27.9435 12.4664 27.5571 13.5897 27.5571 14.9968H28.5571ZM28.5571 22.312V14.9968H27.5571V22.312H28.5571ZM23.099 22.812H28.0571V21.812H23.099V22.812ZM22.599 6.2416V22.312H23.599V6.2416H22.599ZM28.0571 5.7416H23.099V6.7416H28.0571V5.7416ZM28.5571 9.2656V6.2416H27.5571V9.2656H28.5571ZM43.2793 6.54C44.8129 6.54 46.167 6.85604 47.3532 7.47663L47.8167 6.59057C46.4707 5.88635 44.9543 5.54 43.2793 5.54V6.54ZM39.1895 7.47735C40.3861 6.85602 41.7456 6.54 43.2793 6.54V5.54C41.6041 5.54 40.0835 5.88637 38.7287 6.58985L39.1895 7.47735ZM36.3905 10.1503C37.0679 8.98405 37.9983 8.09583 39.1895 7.47735L38.7287 6.58985C37.3683 7.29618 36.2981 8.31834 35.5258 9.64808L36.3905 10.1503ZM35.3708 14.2768C35.3708 12.6805 35.7165 11.3108 36.3905 10.1503L35.5258 9.64808C34.75 10.9837 34.3708 12.5322 34.3708 14.2768H35.3708ZM36.3905 18.4033C35.7165 17.2428 35.3708 15.8731 35.3708 14.2768H34.3708C34.3708 16.0214 34.75 17.5699 35.5258 18.9055L36.3905 18.4033ZM39.1895 21.0763C37.9983 20.4578 37.0679 19.5696 36.3905 18.4033L35.5258 18.9055C36.2981 20.2353 37.3683 21.2574 38.7287 21.9638L39.1895 21.0763ZM43.2793 22.0136C41.7456 22.0136 40.3861 21.6976 39.1895 21.0763L38.7287 21.9638C40.0835 22.6672 41.6041 23.0136 43.2793 23.0136V22.0136ZM47.3532 21.077C46.167 21.6976 44.8129 22.0136 43.2793 22.0136V23.0136C44.9543 23.0136 46.4707 22.6673 47.8167 21.963L47.3532 21.077ZM50.139 18.4033C49.4611 19.5705 48.5348 20.4588 47.3532 21.077L47.8167 21.963C49.1674 21.2564 50.232 20.2343 51.0038 18.9055L50.139 18.4033ZM51.1587 14.2768C51.1587 15.8731 50.813 17.2428 50.139 18.4033L51.0038 18.9055C51.7795 17.5699 52.1587 16.0214 52.1587 14.2768H51.1587ZM50.139 10.1503C50.813 11.3108 51.1587 12.6805 51.1587 14.2768H52.1587C52.1587 12.5322 51.7795 10.9837 51.0038 9.64808L50.139 10.1503ZM47.3532 7.47663C48.5348 8.09482 49.4611 8.98307 50.139 10.1503L51.0038 9.64808C50.232 8.31932 49.1674 7.29719 47.8167 6.59057L47.3532 7.47663ZM41.2497 11.6692C41.8021 11.0878 42.468 10.8024 43.2793 10.8024V9.8024C42.1962 9.8024 41.2675 10.1986 40.5247 10.9804L41.2497 11.6692ZM40.4159 14.2768C40.4159 13.0706 40.7187 12.2281 41.2497 11.6692L40.5247 10.9804C39.7606 11.7847 39.4159 12.9102 39.4159 14.2768H40.4159ZM41.2472 16.8675C40.7189 16.3192 40.4159 15.4835 40.4159 14.2768H39.4159C39.4159 15.6429 39.7604 16.7656 40.5272 17.5613L41.2472 16.8675ZM43.2793 17.7224C42.4656 17.7224 41.799 17.44 41.2472 16.8675L40.5272 17.5613C41.2705 18.3328 42.1986 18.7224 43.2793 18.7224V17.7224ZM45.2942 16.8702C44.753 17.4402 44.0927 17.7224 43.2793 17.7224V18.7224C44.3601 18.7224 45.2848 18.3326 46.0195 17.5586L45.2942 16.8702ZM46.1136 14.2768C46.1136 15.4854 45.8145 16.3221 45.2942 16.8702L46.0195 17.5586C46.7749 16.7627 47.1136 15.6411 47.1136 14.2768H46.1136ZM45.2917 11.6665C45.8147 12.2252 46.1136 13.0688 46.1136 14.2768H47.1136C47.1136 12.912 46.7747 11.7876 46.0219 10.9831L45.2917 11.6665ZM43.2793 10.8024C44.0904 10.8024 44.75 11.0875 45.2917 11.6665L46.0219 10.9831C45.2879 10.1989 44.3625 9.8024 43.2793 9.8024V10.8024ZM59.7796 11.7386C60.3206 11.1612 61.0372 10.86 61.9808 10.86V9.86C60.7981 9.86 59.804 10.25 59.0499 11.055L59.7796 11.7386ZM58.9434 14.2768C58.9434 13.136 59.2423 12.3122 59.7796 11.7386L59.0499 11.055C58.2921 11.8638 57.9434 12.96 57.9434 14.2768H58.9434ZM59.7796 16.815C59.2423 16.2414 58.9434 15.4176 58.9434 14.2768H57.9434C57.9434 15.5936 58.2921 16.6898 59.0499 17.4986L59.7796 16.815ZM61.9808 17.6936C61.0372 17.6936 60.3206 17.3924 59.7796 16.815L59.0499 17.4986C59.804 18.3036 60.7981 18.6936 61.9808 18.6936V17.6936ZM64.1823 16.7858C63.6172 17.3878 62.8975 17.6936 61.9808 17.6936V18.6936C63.1517 18.6936 64.1427 18.289 64.9113 17.4702L64.1823 16.7858ZM65.0471 14.2768C65.0471 15.3698 64.7437 16.1877 64.1823 16.7858L64.9113 17.4702C65.6836 16.6475 66.0471 15.5646 66.0471 14.2768H65.0471ZM64.1846 11.7559C64.7422 12.3419 65.0471 13.1618 65.0471 14.2768H66.0471C66.0471 12.9726 65.6851 11.8821 64.909 11.0665L64.1846 11.7559ZM61.9808 10.86C62.8997 10.86 63.6201 11.1627 64.1846 11.7559L64.909 11.0665C64.1398 10.2581 63.1495 9.86 61.9808 9.86V10.86ZM89.9896 21.812H85.0025V22.812H89.9896V21.812ZM89.4896 6.2416V22.312H90.4896V6.2416H89.4896ZM85.0025 6.7416H89.9896V5.7416H85.0025V6.7416ZM85.5025 14.7664V6.2416H84.5025V14.7664H85.5025ZM84.5015 17.8112C85.1923 17.0563 85.5025 16.0166 85.5025 14.7664H84.5025C84.5025 15.8586 84.2327 16.6237 83.7638 17.136L84.5015 17.8112ZM81.7551 18.924C82.8744 18.924 83.8106 18.5661 84.5015 17.8112L83.7638 17.136C83.2949 17.6483 82.6461 17.924 81.7551 17.924V18.924ZM79.0862 17.8598C79.7665 18.5813 80.6753 18.924 81.7551 18.924V17.924C80.9019 17.924 80.274 17.6619 79.8138 17.1738L79.0862 17.8598ZM78.0947 14.968C78.0947 16.1484 78.4037 17.1359 79.0862 17.8598L79.8138 17.1738C79.3559 16.6881 79.0947 15.9764 79.0947 14.968H78.0947ZM78.0947 6.2416V14.968H79.0947V6.2416H78.0947ZM73.6656 6.7416H78.5947V5.7416H73.6656V6.7416ZM74.1656 15.5728V6.2416H73.1656V15.5728H74.1656ZM75.6775 20.3094C74.6891 19.1974 74.1656 17.6393 74.1656 15.5728H73.1656C73.1656 17.8071 73.7342 19.6282 74.9301 20.9738L75.6775 20.3094ZM79.7255 21.9848C77.9922 21.9848 76.662 21.4171 75.6775 20.3094L74.9301 20.9738C76.1299 22.3237 77.7474 22.9848 79.7255 22.9848V21.9848ZM82.6701 21.2221C81.8402 21.7254 80.8644 21.9848 79.7255 21.9848V22.9848C81.0221 22.9848 82.1822 22.6874 83.1886 22.0771L82.6701 21.2221ZM84.554 19.1821C84.1333 20.0354 83.5089 20.7134 82.6701 21.2221L83.1886 22.0771C84.1862 21.4722 84.9439 20.6527 85.4509 19.6243L84.554 19.1821ZM85.5025 22.312V19.4032H84.5025V22.312H85.5025ZM106.28 7.36499C104.767 6.13992 102.902 5.54 100.718 5.54V6.54C102.709 6.54 104.342 7.08247 105.651 8.14221L106.28 7.36499ZM109.125 12.372C108.739 10.2726 107.795 8.59144 106.28 7.36499L105.651 8.14221C106.958 9.20057 107.793 10.6585 108.141 12.5528L109.125 12.372ZM103.385 12.9624H108.633V11.9624H103.385V12.9624ZM102.117 11.2411C102.498 11.5436 102.764 11.9746 102.897 12.5716L103.873 12.3532C103.697 11.5678 103.325 10.9236 102.739 10.4581L102.117 11.2411ZM100.602 10.7736C101.245 10.7736 101.738 10.9401 102.117 11.2411L102.739 10.4581C102.152 9.99114 101.427 9.7736 100.602 9.7736V10.7736ZM98.8421 11.6136C99.3093 11.0455 99.8838 10.7736 100.602 10.7736V9.7736C99.5797 9.7736 98.7237 10.1833 98.0698 10.9784L98.8421 11.6136ZM98.1151 14.2768C98.1151 13.0334 98.3833 12.1716 98.8421 11.6136L98.0698 10.9784C97.4075 11.7836 97.1151 12.909 97.1151 14.2768H98.1151ZM98.8421 16.94C98.3833 16.382 98.1151 15.5202 98.1151 14.2768H97.1151C97.1151 15.6446 97.4075 16.77 98.0698 17.5752L98.8421 16.94ZM100.602 17.78C99.8838 17.78 99.3093 17.5081 98.8421 16.94L98.0698 17.5752C98.7237 18.3703 99.5797 18.78 100.602 18.78V17.78ZM102.117 17.3125C101.738 17.6135 101.245 17.78 100.602 17.78V18.78C101.427 18.78 102.152 18.5625 102.739 18.0955L102.117 17.3125ZM102.897 15.982C102.764 16.579 102.498 17.01 102.117 17.3125L102.739 18.0955C103.325 17.63 103.697 16.9858 103.873 16.2004L102.897 15.982ZM108.633 15.5912H103.385V16.5912H108.633V15.5912ZM106.28 21.1886C107.795 19.9622 108.739 18.281 109.125 16.1816L108.141 16.0008C107.793 17.8951 106.958 19.353 105.651 20.4114L106.28 21.1886ZM100.718 23.0136C102.902 23.0136 104.767 22.4137 106.28 21.1886L105.651 20.4114C104.342 21.4711 102.709 22.0136 100.718 22.0136V23.0136ZM96.2614 21.96C97.5712 22.6669 99.061 23.0136 100.718 23.0136V22.0136C99.204 22.0136 97.8813 21.6979 96.7363 21.08L96.2614 21.96ZM93.1772 18.8979C93.9182 20.2269 94.948 21.2513 96.2614 21.96L96.7363 21.08C95.5948 20.4639 94.7013 19.5779 94.0506 18.4109L93.1772 18.8979ZM92.0701 14.2768C92.0701 16.0179 92.4333 17.5637 93.1772 18.8979L94.0506 18.4109C93.4027 17.249 93.0701 15.8765 93.0701 14.2768H92.0701ZM93.162 9.64246C92.4275 10.9682 92.0701 12.5188 92.0701 14.2768H93.0701C93.0701 12.6556 93.3989 11.2783 94.0367 10.1271L93.162 9.64246ZM96.2483 6.59281C94.9256 7.30105 93.8944 8.32071 93.162 9.64246L94.0367 10.1271C94.6768 8.97207 95.5689 8.09096 96.7204 7.47439L96.2483 6.59281ZM100.718 5.54C99.061 5.54 97.567 5.88674 96.2483 6.59281L96.7204 7.47439C97.8759 6.85566 99.2041 6.54 100.718 6.54V5.54ZM119.876 18.0784V22.312H120.876V18.0784H119.876ZM118.81 18.5784H120.376V17.5784H118.81V18.5784ZM117.145 18.0653C117.547 18.4492 118.148 18.5784 118.81 18.5784V17.5784C118.235 17.5784 117.957 17.458 117.837 17.3427L117.145 18.0653ZM116.599 16.3792C116.599 17.0535 116.733 17.6711 117.145 18.0653L117.837 17.3427C117.727 17.2377 117.599 16.9721 117.599 16.3792H116.599ZM116.599 10.3888V16.3792H117.599V10.3888H116.599ZM120.347 9.8888H117.099V10.8888H120.347V9.8888ZM119.847 6.2416V10.3888H120.847V6.2416H119.847ZM117.099 6.7416H120.347V5.7416H117.099V6.7416ZM116.599 2.296V6.2416H117.599V2.296H116.599ZM112.141 2.796H117.099V1.796H112.141V2.796ZM112.641 6.2416V2.296H111.641V6.2416H112.641ZM109.967 6.7416H112.141V5.7416H109.967V6.7416ZM110.467 10.3888V6.2416H109.467V10.3888H110.467ZM112.141 9.8888H109.967V10.8888H112.141V9.8888ZM112.641 16.2928V10.3888H111.641V16.2928H112.641ZM114.053 20.5406C113.153 19.745 112.641 18.3758 112.641 16.2928H111.641C111.641 18.5107 112.184 20.223 113.39 21.2898L114.053 20.5406ZM118.143 21.812C116.328 21.812 114.987 21.3665 114.053 20.5406L113.39 21.2898C114.563 22.3263 116.17 22.812 118.143 22.812V21.812ZM120.376 21.812H118.143V22.812H120.376V21.812ZM128.617 22.312V1H127.617V22.312H128.617ZM123.159 22.812H128.117V21.812H123.159V22.812ZM122.659 1V22.312H123.659V1H122.659ZM128.117 0.5H123.159V1.5H128.117V0.5ZM134.814 6.42507L138.699 16.2747L139.63 15.9077L135.744 6.05813L134.814 6.42507ZM129.741 6.7416H135.279V5.7416H129.741V6.7416ZM136.984 21.5063L130.199 6.04073L129.283 6.44247L136.068 21.9081L136.984 21.5063ZM133.182 30.1816L136.98 21.916L136.072 21.4984L132.273 29.764L133.182 30.1816ZM138.179 29.4728H132.728V30.4728H138.179V29.4728ZM147.809 6.04596L137.718 29.7772L138.639 30.1684L148.729 6.43724L147.809 6.04596ZM142.789 6.7416H148.269V5.7416H142.789V6.7416ZM139.634 16.2639L143.258 6.41427L142.319 6.06893L138.695 15.9185L139.634 16.2639Z" fill="black"/>
</g>
<defs>
<filter id="filter0_d" x="0.651367" y="0.5" width="152.373" height="37.9728" filterUnits="userSpaceOnUse" color-interpolation-filters="sRGB">
<feFlood flood-opacity="0" result="BackgroundImageFix"/>
<feColorMatrix in="SourceAlpha" type="matrix" values="0 0 0 0 0 0 0 0 0 0 0 0 0 0 0 0 0 0 127 0"/>
<feOffset dy="4"/>
<feGaussianBlur stdDeviation="2"/>
<feColorMatrix type="matrix" values="0 0 0 0 0 0 0 0 0 0 0 0 0 0 0 0 0 0 0.25 0"/>
<feBlend mode="normal" in2="BackgroundImageFix" result="effect1_dropShadow"/>
<feBlend mode="normal" in="SourceGraphic" in2="effect1_dropShadow" result="shape"/>
</filter>
</defs>
</svg>
